<?xml version="1.0" encoding="utf-8"?>
<!DOCTYPE svg PUBLIC "-//W3C//DTD SVG 20010904//EN" "http://www.w3.org/TR/2001/REC-SVG-20010904/DTD/svg10.dtd">
<svg version="1.0" xmlns="http://www.w3.org/2000/svg" width="271px" height="271px" viewBox="0 0 271 271" preserveAspectRatio="xMidYMid meet">
 <g fill="transparent">
  <path d="M0 135.5 l0 -135.5 135.5 0 135.5 0 0 135.5 0 135.5 -135.5 0 -135.5 0 0 -135.5z m58.2 17.8 c0 -24.7 0.2 -47.7 0.2 -51.3 l0.1 -6.5 28.3 -0.3 28.2 -0.2 0 -11.5 0 -11.5 -39.5 0 -39.5 0 0 62.3 c0 34.3 0.3 62.7 0.7 63 0.3 0.4 5.3 0.7 11 0.7 l10.3 0 0.2 -44.7z m172.5 44 c-0.4 -0.5 -11.2 -11.3 -24 -24 l-23.2 -23.3 -5.9 6 -6 5.9 18.3 18.1 18.3 18 11.6 0 c6.3 0 11.2 -0.3 10.9 -0.7z m-53.7 -90.8 l39.5 -39.5 -12.5 0 -12.5 0 -28.5 28.5 -28.5 28.5 -32 0.2 -32 0.3 -0.3 10.8 -0.3 10.7 33.8 0 33.8 0 39.5 -39.5z"/>
 </g>
 <g fill="#fff">
  <path d="M33.7 200.3 c-0.4 -0.3 -0.7 -30 -0.7 -66 l0 -65.3 42.5 0 42.5 0 0 14.5 0 14.5 -28.2 0.2 -28.2 0.3 -0.1 6.5 c0 3.6 -0.1 26.6 -0.3 51.3 l-0.2 44.7 -13.3 0 c-7.4 0 -13.7 -0.3 -14 -0.7z"/>
  <path d="M185.4 181.5 l-19.8 -19.6 9 -8.9 8.9 -9 27.7 27.8 c15.3 15.2 28.1 28 28.4 28.5 0.4 0.4 -7.2 0.7 -16.9 0.7 l-17.5 0 -19.8 -19.5z"/>
  <path d="M67.2 135.3 l0.3 -13.8 32 -0.3 32 -0.2 28.5 -28.5 28.5 -28.5 18.5 0 18.5 0 -42.5 42.5 -42.5 42.5 -36.8 0 -36.8 0 0.3 -13.7z"/>
 </g>
</svg>